<mxfile host="app.diagrams.net" modified="2023-05-17T16:26:25.781Z" agent="Mozilla/5.0 (Windows NT 10.0; Win64; x64) AppleWebKit/537.36 (KHTML, like Gecko) Chrome/112.0.0.0 Safari/537.36 OPR/98.0.0.0" etag="rYWMcfwJ-TcidYPNSVhy" version="21.3.2" type="github">
  <diagram name="Page-1" id="80d4a630-b321-0f5e-ff81-c5a36ef4752d">
    <mxGraphModel dx="1053" dy="568" grid="1" gridSize="10" guides="1" tooltips="1" connect="1" arrows="1" fold="1" page="1" pageScale="1" pageWidth="1100" pageHeight="850" background="none" math="0" shadow="0">
      <root>
        <mxCell id="0" />
        <mxCell id="1" parent="0" />
        <mxCell id="v8N_cCO75sESYDzRJO4r-33" value="" style="ellipse;whiteSpace=wrap;html=1;fillColor=#d0cee2;strokeColor=#4C0099;strokeWidth=3;" vertex="1" parent="1">
          <mxGeometry x="430" y="50" width="190" height="160" as="geometry" />
        </mxCell>
        <mxCell id="v8N_cCO75sESYDzRJO4r-32" value="" style="html=1;verticalLabelPosition=bottom;align=center;labelBackgroundColor=#ffffff;verticalAlign=top;strokeWidth=2;strokeColor=#0080F0;shadow=0;dashed=0;shape=mxgraph.ios7.icons.cloud;fillColor=none;" vertex="1" parent="1">
          <mxGeometry x="448" y="90" width="71" height="40" as="geometry" />
        </mxCell>
        <mxCell id="v8N_cCO75sESYDzRJO4r-10" value="" style="ellipse;whiteSpace=wrap;html=1;fillColor=#fad7ac;strokeColor=#994C00;strokeWidth=3;" vertex="1" parent="1">
          <mxGeometry x="658" y="170" width="242" height="217" as="geometry" />
        </mxCell>
        <mxCell id="v8N_cCO75sESYDzRJO4r-9" value="" style="ellipse;whiteSpace=wrap;html=1;fillColor=#b0e3e6;strokeColor=#7EA6E0;fontStyle=1;strokeWidth=3;" vertex="1" parent="1">
          <mxGeometry x="60" y="171" width="370" height="274" as="geometry" />
        </mxCell>
        <mxCell id="5c82df7aa0dc6260-3" value="" style="fontColor=#0066CC;verticalAlign=top;verticalLabelPosition=bottom;labelPosition=center;align=center;html=1;fillColor=#FFFFFF;strokeColor=#000000;gradientColor=none;gradientDirection=north;strokeWidth=2;shape=mxgraph.networks.radio_tower;rounded=1;shadow=0;comic=0;labelBackgroundColor=none;" parent="1" vertex="1">
          <mxGeometry x="326" y="582" width="55" height="100" as="geometry" />
        </mxCell>
        <mxCell id="5c82df7aa0dc6260-74" value="" style="shape=image;html=1;verticalAlign=top;verticalLabelPosition=bottom;labelBackgroundColor=#ffffff;imageAspect=0;aspect=fixed;image=https://cdn0.iconfinder.com/data/icons/fatcow/32x32/tree.png;rounded=1;shadow=0;comic=0;strokeColor=#6881B3;strokeWidth=2;fillColor=#CCFFCC;fontColor=#0066CC;" parent="1" vertex="1">
          <mxGeometry x="811.58" y="295" width="32" height="32" as="geometry" />
        </mxCell>
        <mxCell id="v8N_cCO75sESYDzRJO4r-2" value="" style="html=1;verticalLabelPosition=bottom;align=center;labelBackgroundColor=#ffffff;verticalAlign=top;strokeWidth=2;strokeColor=#CCCCCC;shadow=0;dashed=0;shape=mxgraph.ios7.icons.home;fillColor=#FFFFFF;" vertex="1" parent="1">
          <mxGeometry x="744" y="260" width="70" height="63" as="geometry" />
        </mxCell>
        <mxCell id="v8N_cCO75sESYDzRJO4r-3" value="" style="shape=image;html=1;verticalAlign=top;verticalLabelPosition=bottom;labelBackgroundColor=#ffffff;imageAspect=0;aspect=fixed;image=https://cdn4.iconfinder.com/data/icons/for-your-interface-free-samples/128/Globe-128.png;imageBackground=none;imageBorder=none;" vertex="1" parent="1">
          <mxGeometry x="478" y="83" width="94" height="94" as="geometry" />
        </mxCell>
        <mxCell id="v8N_cCO75sESYDzRJO4r-4" value="" style="endArrow=classic;startArrow=classic;html=1;rounded=0;entryX=0.061;entryY=0.768;entryDx=0;entryDy=0;entryPerimeter=0;" edge="1" parent="1" source="v8N_cCO75sESYDzRJO4r-9" target="v8N_cCO75sESYDzRJO4r-33">
          <mxGeometry width="50" height="50" relative="1" as="geometry">
            <mxPoint x="450" y="315" as="sourcePoint" />
            <mxPoint x="413.1399999999999" y="193" as="targetPoint" />
          </mxGeometry>
        </mxCell>
        <mxCell id="v8N_cCO75sESYDzRJO4r-5" value="" style="endArrow=classic;startArrow=classic;html=1;rounded=0;entryX=0.937;entryY=0.75;entryDx=0;entryDy=0;exitX=0.115;exitY=0.143;exitDx=0;exitDy=0;exitPerimeter=0;entryPerimeter=0;" edge="1" parent="1" source="v8N_cCO75sESYDzRJO4r-10" target="v8N_cCO75sESYDzRJO4r-33">
          <mxGeometry width="50" height="50" relative="1" as="geometry">
            <mxPoint x="468" y="280" as="sourcePoint" />
            <mxPoint x="518" y="230" as="targetPoint" />
          </mxGeometry>
        </mxCell>
        <mxCell id="v8N_cCO75sESYDzRJO4r-12" value="" style="fontColor=#0066CC;verticalAlign=top;verticalLabelPosition=bottom;labelPosition=center;align=center;html=1;outlineConnect=0;fillColor=#CCCCCC;strokeColor=#6881B3;gradientColor=none;gradientDirection=north;strokeWidth=2;shape=mxgraph.networks.pc;" vertex="1" parent="1">
          <mxGeometry x="340" y="295" width="50" height="32" as="geometry" />
        </mxCell>
        <mxCell id="v8N_cCO75sESYDzRJO4r-13" value="" style="fontColor=#0066CC;verticalAlign=top;verticalLabelPosition=bottom;labelPosition=center;align=center;html=1;outlineConnect=0;fillColor=#CCCCCC;strokeColor=#6881B3;gradientColor=none;gradientDirection=north;strokeWidth=2;shape=mxgraph.networks.pc;" vertex="1" parent="1">
          <mxGeometry x="230" y="369" width="50" height="32" as="geometry" />
        </mxCell>
        <mxCell id="v8N_cCO75sESYDzRJO4r-14" value="" style="fontColor=#0066CC;verticalAlign=top;verticalLabelPosition=bottom;labelPosition=center;align=center;html=1;outlineConnect=0;fillColor=#CCCCCC;strokeColor=#6881B3;gradientColor=none;gradientDirection=north;strokeWidth=2;shape=mxgraph.networks.pc;" vertex="1" parent="1">
          <mxGeometry x="310" y="355" width="50" height="32" as="geometry" />
        </mxCell>
        <mxCell id="v8N_cCO75sESYDzRJO4r-15" value="" style="fontColor=#0066CC;verticalAlign=top;verticalLabelPosition=bottom;labelPosition=center;align=center;html=1;outlineConnect=0;fillColor=#CCCCCC;strokeColor=#6881B3;gradientColor=none;gradientDirection=north;strokeWidth=2;shape=mxgraph.networks.user_male;" vertex="1" parent="1">
          <mxGeometry x="325" y="235" width="20" height="40" as="geometry" />
        </mxCell>
        <mxCell id="v8N_cCO75sESYDzRJO4r-16" value="" style="fontColor=#0066CC;verticalAlign=top;verticalLabelPosition=bottom;labelPosition=center;align=center;html=1;outlineConnect=0;fillColor=#CCCCCC;strokeColor=#6881B3;gradientColor=none;gradientDirection=north;strokeWidth=2;shape=mxgraph.networks.user_female;" vertex="1" parent="1">
          <mxGeometry x="351" y="235" width="15" height="40.5" as="geometry" />
        </mxCell>
        <mxCell id="v8N_cCO75sESYDzRJO4r-17" value="" style="fontColor=#0066CC;verticalAlign=top;verticalLabelPosition=bottom;labelPosition=center;align=center;html=1;outlineConnect=0;fillColor=#CCCCCC;strokeColor=#6881B3;gradientColor=none;gradientDirection=north;strokeWidth=2;shape=mxgraph.networks.user_male;" vertex="1" parent="1">
          <mxGeometry x="721.58" y="291" width="20" height="40" as="geometry" />
        </mxCell>
        <mxCell id="v8N_cCO75sESYDzRJO4r-18" value="Intranet&amp;nbsp;&lt;br style=&quot;font-size: 14px;&quot;&gt;empresarial" style="text;html=1;strokeColor=none;fillColor=none;align=center;verticalAlign=middle;whiteSpace=wrap;rounded=0;fontColor=#000000;fontStyle=1;fontFamily=Courier New;fontSize=14;" vertex="1" parent="1">
          <mxGeometry x="250" y="185" width="60" height="30" as="geometry" />
        </mxCell>
        <mxCell id="v8N_cCO75sESYDzRJO4r-19" value="Home office" style="text;html=1;strokeColor=none;fillColor=none;align=center;verticalAlign=middle;whiteSpace=wrap;rounded=0;fontColor=#000000;fontFamily=Courier New;fontStyle=1;fontSize=14;" vertex="1" parent="1">
          <mxGeometry x="714.42" y="195" width="70" height="40" as="geometry" />
        </mxCell>
        <mxCell id="v8N_cCO75sESYDzRJO4r-20" value="" style="fontColor=#0066CC;verticalAlign=top;verticalLabelPosition=bottom;labelPosition=center;align=center;html=1;outlineConnect=0;fillColor=#CCCCCC;strokeColor=#6881B3;gradientColor=none;gradientDirection=north;strokeWidth=2;shape=mxgraph.networks.rack;" vertex="1" parent="1">
          <mxGeometry x="260" y="221" width="40" height="80" as="geometry" />
        </mxCell>
        <mxCell id="v8N_cCO75sESYDzRJO4r-21" value="" style="endArrow=none;html=1;rounded=0;exitX=0;exitY=0.5;exitDx=0;exitDy=0;exitPerimeter=0;entryX=1;entryY=0.5;entryDx=0;entryDy=0;entryPerimeter=0;strokeColor=#000000;" edge="1" parent="1" source="v8N_cCO75sESYDzRJO4r-12" target="v8N_cCO75sESYDzRJO4r-20">
          <mxGeometry width="50" height="50" relative="1" as="geometry">
            <mxPoint x="430" y="305" as="sourcePoint" />
            <mxPoint x="480" y="255" as="targetPoint" />
          </mxGeometry>
        </mxCell>
        <mxCell id="v8N_cCO75sESYDzRJO4r-22" value="" style="endArrow=none;html=1;rounded=0;exitX=1;exitY=1;exitDx=0;exitDy=0;exitPerimeter=0;entryX=0;entryY=0;entryDx=0;entryDy=0;entryPerimeter=0;strokeColor=#000000;" edge="1" parent="1" source="v8N_cCO75sESYDzRJO4r-20" target="v8N_cCO75sESYDzRJO4r-14">
          <mxGeometry width="50" height="50" relative="1" as="geometry">
            <mxPoint x="430" y="305" as="sourcePoint" />
            <mxPoint x="480" y="255" as="targetPoint" />
          </mxGeometry>
        </mxCell>
        <mxCell id="v8N_cCO75sESYDzRJO4r-23" value="" style="endArrow=none;html=1;rounded=0;exitX=0;exitY=1;exitDx=0;exitDy=0;exitPerimeter=0;strokeColor=#000000;" edge="1" parent="1" source="v8N_cCO75sESYDzRJO4r-20" target="v8N_cCO75sESYDzRJO4r-13">
          <mxGeometry width="50" height="50" relative="1" as="geometry">
            <mxPoint x="430" y="305" as="sourcePoint" />
            <mxPoint x="480" y="255" as="targetPoint" />
          </mxGeometry>
        </mxCell>
        <mxCell id="v8N_cCO75sESYDzRJO4r-24" value="" style="fontColor=#0066CC;verticalAlign=top;verticalLabelPosition=bottom;labelPosition=center;align=center;html=1;outlineConnect=0;fillColor=#CCCCCC;strokeColor=#6881B3;gradientColor=none;gradientDirection=north;strokeWidth=2;shape=mxgraph.networks.rack;" vertex="1" parent="1">
          <mxGeometry x="170" y="221" width="40" height="80" as="geometry" />
        </mxCell>
        <mxCell id="v8N_cCO75sESYDzRJO4r-25" value="" style="endArrow=none;html=1;rounded=0;exitX=0;exitY=0.5;exitDx=0;exitDy=0;exitPerimeter=0;entryX=1;entryY=0.5;entryDx=0;entryDy=0;entryPerimeter=0;strokeColor=#000000;" edge="1" parent="1" source="v8N_cCO75sESYDzRJO4r-20" target="v8N_cCO75sESYDzRJO4r-24">
          <mxGeometry width="50" height="50" relative="1" as="geometry">
            <mxPoint x="430" y="305" as="sourcePoint" />
            <mxPoint x="480" y="255" as="targetPoint" />
          </mxGeometry>
        </mxCell>
        <mxCell id="v8N_cCO75sESYDzRJO4r-26" value="" style="fontColor=#0066CC;verticalAlign=top;verticalLabelPosition=bottom;labelPosition=center;align=center;html=1;outlineConnect=0;fillColor=#CCCCCC;strokeColor=#6881B3;gradientColor=none;gradientDirection=north;strokeWidth=2;shape=mxgraph.networks.pc;" vertex="1" parent="1">
          <mxGeometry x="140" y="355" width="50" height="32" as="geometry" />
        </mxCell>
        <mxCell id="v8N_cCO75sESYDzRJO4r-27" value="" style="fontColor=#0066CC;verticalAlign=top;verticalLabelPosition=bottom;labelPosition=center;align=center;html=1;outlineConnect=0;fillColor=#CCCCCC;strokeColor=#6881B3;gradientColor=none;gradientDirection=north;strokeWidth=2;shape=mxgraph.networks.pc;" vertex="1" parent="1">
          <mxGeometry x="90" y="301" width="50" height="32" as="geometry" />
        </mxCell>
        <mxCell id="v8N_cCO75sESYDzRJO4r-29" value="" style="endArrow=none;html=1;rounded=0;exitX=0.5;exitY=0.07;exitDx=0;exitDy=0;exitPerimeter=0;entryX=0;entryY=0.5;entryDx=0;entryDy=0;entryPerimeter=0;strokeColor=#000000;" edge="1" parent="1" source="v8N_cCO75sESYDzRJO4r-27" target="v8N_cCO75sESYDzRJO4r-24">
          <mxGeometry width="50" height="50" relative="1" as="geometry">
            <mxPoint x="430" y="305" as="sourcePoint" />
            <mxPoint x="480" y="255" as="targetPoint" />
          </mxGeometry>
        </mxCell>
        <mxCell id="v8N_cCO75sESYDzRJO4r-30" value="" style="endArrow=none;html=1;rounded=0;exitX=0.5;exitY=0.07;exitDx=0;exitDy=0;exitPerimeter=0;entryX=0;entryY=1;entryDx=0;entryDy=0;entryPerimeter=0;strokeColor=#000000;" edge="1" parent="1" source="v8N_cCO75sESYDzRJO4r-26" target="v8N_cCO75sESYDzRJO4r-24">
          <mxGeometry width="50" height="50" relative="1" as="geometry">
            <mxPoint x="230" y="305" as="sourcePoint" />
            <mxPoint x="280" y="255" as="targetPoint" />
          </mxGeometry>
        </mxCell>
        <mxCell id="v8N_cCO75sESYDzRJO4r-31" value="" style="html=1;verticalLabelPosition=bottom;align=center;labelBackgroundColor=#ffffff;verticalAlign=top;strokeWidth=2;strokeColor=#0080F0;shadow=0;dashed=0;shape=mxgraph.ios7.icons.cloud;fillColor=none;" vertex="1" parent="1">
          <mxGeometry x="519" y="140" width="80" height="40" as="geometry" />
        </mxCell>
        <mxCell id="v8N_cCO75sESYDzRJO4r-34" value="Internet" style="text;html=1;strokeColor=none;fillColor=none;align=center;verticalAlign=middle;whiteSpace=wrap;rounded=0;fontColor=#000000;fontFamily=Courier New;fontStyle=1;fontSize=14;" vertex="1" parent="1">
          <mxGeometry x="498" y="60" width="70" height="40" as="geometry" />
        </mxCell>
        <mxCell id="v8N_cCO75sESYDzRJO4r-35" value="" style="image;points=[];aspect=fixed;html=1;align=center;shadow=0;dashed=0;image=img/lib/allied_telesis/computer_and_terminals/Laptop.svg;imageBackground=none;opacity=80;" vertex="1" parent="1">
          <mxGeometry x="784.4200000000001" y="200" width="59.16" height="60" as="geometry" />
        </mxCell>
      </root>
    </mxGraphModel>
  </diagram>
</mxfile>
